# xmcd CD database file
#
# Track frame offsets:
#	150
#	12445
#	27590
#	38222
#	52325
#	63830
#	76130
#	87579
#	101000
#	116880
#	134642
#	147370
#	160725
#	180135
#
# Disc length: 2650 seconds
#
# Revision: 1
# Processed by: cddbd v1.5.1PL2 Copyright (c) Steve Scherf et al.
# Submitted via: jetAudio 5
#
DISCID=c20a580e
DTITLE=Vários - Encontros Sertanejos
DYEAR=1900
DGENRE=
TTITLE0=Chalana
TTITLE1=Boiada
TTITLE2=Adeus mariana
TTITLE3=Luar do Sertão
TTITLE4=João de Barro
TTITLE5=Mocinhas da Cidade
TTITLE6=Moreninha Linda
TTITLE7=Velho Sozinho
TTITLE8=Coração de Pedra
TTITLE9=Filho Adotivo
TTITLE10=Burro Picasso
TTITLE11=Romper da Auróra
TTITLE12=Obras de Poeta
TTITLE13=O Menino da Gaita
EXTD=
EXTT0=
EXTT1=
EXTT2=
EXTT3=
EXTT4=
EXTT5=
EXTT6=
EXTT7=
EXTT8=
EXTT9=
EXTT10=
EXTT11=
EXTT12=
EXTT13=
PLAYORDER=
